<svg width="20" height="14" viewBox="0 0 20 14" fill="none" xmlns="http://www.w3.org/2000/svg">
<path d="M9.37156 6.73639C9.51828 6.85542 9.70146 6.92037 9.89038 6.92037C10.0793 6.92037 10.2625 6.85542 10.4092 6.73639L18.0597 0.148234C17.8139 0.0585756 17.5554 0.00854059 17.2938 0H2.47046C2.20982 0.00324315 1.95133 0.0477141 1.70459 0.131763L9.37156 6.73639Z" fill="#170E0E"/>
<path d="M19.7645 2.47047C19.762 2.00992 19.6308 1.55924 19.3857 1.16931L12.6987 6.93395L19.5175 12.5998C19.6791 12.266 19.7636 11.9001 19.7645 11.5292V2.47047Z" fill="#170E0E"/>
<path d="M0.378819 1.16931C0.133734 1.55924 0.00252426 2.00992 0 2.47047V11.5292C0.00218144 11.8973 0.0865903 12.2602 0.247056 12.5915L7.0658 6.92572L0.378819 1.16931Z" fill="#170E0E"/>
<path d="M11.4305 8.01288C10.9925 8.3681 10.4462 8.5628 9.88229 8.56464C9.31837 8.5628 8.77205 8.3681 8.33407 8.01288L1.4165 13.7775C1.74724 13.9283 2.10716 14.0042 2.47061 13.9999H17.294C17.6593 13.9965 18.0193 13.9121 18.3481 13.7528L11.4305 8.01288Z" fill="#170E0E"/>
</svg>
