<svg width="21" height="21" viewBox="0 0 21 21" fill="none" xmlns="http://www.w3.org/2000/svg">
<path d="M10.4999 5.40853C7.73637 5.40853 5.44668 7.6584 5.44668 10.4618C5.44668 13.2644 7.69731 15.515 10.4999 15.515C13.3033 15.515 15.5531 13.2253 15.5531 10.4618C15.5531 7.69746 13.2642 5.40853 10.4999 5.40853ZM10.4999 13.4529C8.85896 13.4529 7.50878 12.1027 7.50878 10.4618C7.50878 8.82081 8.85896 7.47063 10.4999 7.47063C12.1409 7.47063 13.491 8.82081 13.491 10.4618C13.491 12.1027 12.1409 13.4529 10.4999 13.4529Z" fill="#151515" stroke="#151515" stroke-width="0.3"/>
<path d="M15.5948 6.70429C16.2911 6.70429 16.8557 6.13978 16.8557 5.44341C16.8557 4.74704 16.2911 4.18252 15.5948 4.18252C14.8984 4.18252 14.3339 4.74704 14.3339 5.44341C14.3339 6.13978 14.8984 6.70429 15.5948 6.70429Z" fill="#151515" stroke="#151515" stroke-width="0.3"/>
<path d="M2.50475 18.614L2.50482 18.6141C3.57119 19.641 4.98954 20.15 6.59274 20.15H14.4073C16.088 20.15 17.506 19.6021 18.5334 18.6142L18.5335 18.6141C19.6024 17.5848 20.15 16.1256 20.15 14.4456V6.55443C20.15 4.91179 19.6019 3.49316 18.5748 2.46549C17.5459 1.39762 16.0873 0.85 14.4456 0.85H6.55443C4.85402 0.85 3.42535 1.41746 2.4214 2.4214C1.41746 3.42535 0.85 4.85402 0.85 6.55443V14.4073C0.85 16.0882 1.3982 17.547 2.50475 18.614ZM18.1645 14.4456C18.1645 15.5961 17.7571 16.5129 17.1006 17.1329C16.4443 17.7528 15.5261 18.0879 14.4073 18.0879H6.59274C5.47477 18.0879 4.55718 17.7533 3.90091 17.1343C3.24689 16.4794 2.9121 15.5641 2.9121 14.4073V6.55443C2.9121 5.43579 3.24697 4.5196 3.90244 3.86413C4.51794 3.24863 5.47116 2.9121 6.59274 2.9121H14.4839C15.6016 2.9121 16.5173 3.24645 17.1726 3.90091C17.7946 4.56032 18.1645 5.47962 18.1645 6.55443V14.4456Z" fill="#151515" stroke="#151515" stroke-width="0.3"/>
</svg>
