<svg width="20" height="20" viewBox="0 0 20 20" fill="none" xmlns="http://www.w3.org/2000/svg">
<path d="M10.2216 4.79187C7.46966 4.79187 5.23153 7.02985 5.23047 9.78066C5.23006 10.7234 5.49387 11.6415 5.99325 12.4358L6.11191 12.6246L5.6079 14.4656L7.49618 13.9703L7.67832 14.0784C8.44434 14.533 9.32241 14.7735 10.2176 14.7739H10.2196C12.9696 14.7739 15.2076 12.5357 15.2087 9.78464C15.2092 8.45155 14.6908 7.19802 13.7489 6.25495C12.8069 5.31197 11.5542 4.79228 10.2216 4.79187ZM13.1562 11.9258C13.0313 12.2761 12.432 12.5958 12.1439 12.6389C11.8854 12.6776 11.5585 12.6936 11.1992 12.5795C10.9814 12.5104 10.702 12.418 10.3442 12.2635C8.8396 11.6138 7.85696 10.0989 7.78199 9.99878C7.70703 9.89872 7.16955 9.18551 7.16955 8.44721C7.16955 7.70902 7.55705 7.34613 7.69452 7.19595C7.83194 7.04585 7.99446 7.00828 8.09445 7.00828C8.19443 7.00828 8.29453 7.00922 8.38188 7.01356C8.47395 7.01823 8.5976 6.9786 8.71939 7.27104C8.84435 7.57139 9.14429 8.30966 9.18182 8.38475C9.21934 8.4598 9.24432 8.54739 9.19433 8.6475C9.14434 8.74752 9.11936 8.81014 9.04435 8.8977C8.96939 8.9853 8.88683 9.09324 8.81937 9.16045C8.74429 9.23526 8.66611 9.31644 8.75359 9.46654C8.8411 9.61676 9.1421 10.1079 9.588 10.5056C10.1608 11.0166 10.6441 11.175 10.7941 11.25C10.9441 11.3252 11.0316 11.3125 11.1191 11.2125C11.2066 11.1124 11.494 10.7745 11.594 10.6244C11.694 10.4743 11.794 10.4993 11.9314 10.5493C12.0689 10.5995 12.8063 10.9622 12.9563 11.0373C13.1063 11.1124 13.2063 11.1499 13.2437 11.2125C13.2812 11.275 13.2812 11.5753 13.1562 11.9258Z" fill="black"/>
<path d="M10.0002 0C4.47741 0 0 4.47669 0 9.99959C0 15.5225 4.47741 20 10.0002 20C15.5226 20 20 15.5225 20 9.99959C20 4.47669 15.5226 0 10.0002 0ZM10.2197 15.7878C10.2195 15.7878 10.2198 15.7878 10.2197 15.7878H10.2172C9.21257 15.7875 8.22539 15.5354 7.3487 15.0572L4.16662 15.8919L5.01821 12.7814C4.49292 11.8711 4.21653 10.8385 4.21698 9.78046C4.21828 6.47084 6.91108 3.77818 10.2196 3.77818C11.8253 3.77883 13.3325 4.40396 14.4658 5.53858C15.5991 6.67316 16.2229 8.18129 16.2223 9.78525C16.2208 13.0949 13.5279 15.7878 10.2197 15.7878Z" fill="black"/>
</svg>
