<svg width="19" height="19" viewBox="0 0 19 19" fill="none" xmlns="http://www.w3.org/2000/svg">
<path d="M16.6173 18.9988H2.37593C2.06165 19.0092 1.74863 18.9542 1.45666 18.8374C1.1647 18.7206 0.900141 18.5445 0.679725 18.3203C0.457155 18.1014 0.282048 17.8391 0.165317 17.5496C0.0485865 17.2601 -0.00726566 16.9497 0.00124211 16.6376V2.37593C-0.00915203 2.06165 0.0457807 1.74863 0.162567 1.45666C0.279353 1.1647 0.455451 0.900141 0.679725 0.679725C0.900141 0.455451 1.1647 0.279353 1.45666 0.162567C1.74863 0.0457807 2.06165 -0.00915203 2.37593 0.00124211H16.6241C16.9384 -0.00915203 17.2514 0.0457807 17.5433 0.162567C17.8353 0.279353 18.0999 0.455451 18.3203 0.679725C18.5445 0.900141 18.7206 1.1647 18.8374 1.45666C18.9542 1.74863 19.0092 2.06165 18.9988 2.37593V16.6241C18.9952 17.2539 18.7429 17.8569 18.2969 18.3017C17.8508 18.7464 17.2472 18.997 16.6173 18.9988ZM9.5 15.1314C10.2935 15.1144 11.0516 14.7995 11.6237 14.2494C13.8038 12.5984 15.2535 10.1446 15.9727 6.88784L16.0202 6.26364C16.0202 4.77098 15.2739 4.02464 13.7812 4.02464C13.2353 4.0323 12.6987 4.16704 12.2139 4.41816C11.7222 4.64872 11.2929 4.99399 10.9623 5.42494C10.6317 5.85588 10.4095 6.35991 10.3142 6.89463C10.593 6.72285 10.91 6.62263 11.2369 6.60288C11.8611 6.60288 12.18 7.03032 12.18 7.892C12.0907 8.82142 11.7481 9.70852 11.1894 10.4567C10.8298 10.9859 10.5109 11.2437 10.3142 11.2437C9.96137 11.2437 9.52036 10.3752 8.99792 8.63833L8.82152 7.81058C8.32849 5.18711 7.66584 3.87312 6.83356 3.86859C6.49324 3.85932 6.15322 3.89584 5.82262 3.97715C5.63165 4.02298 5.44539 4.08659 5.26627 4.16713L5.11022 4.29604C4.74044 4.65126 4.3937 5.02971 4.07214 5.4291C3.73968 5.82941 3.47507 6.16865 3.27831 6.45361L3.00014 6.90141L3.44793 7.356L3.88895 6.9489C4.06645 6.84593 4.26727 6.78989 4.47244 6.78607C4.79811 6.78607 5.02201 6.98283 5.15093 7.36956C5.68279 9.59731 6.41398 11.7727 7.33564 13.8694C7.55687 14.2486 7.87246 14.5641 8.25172 14.7853C8.63098 15.0064 9.06101 15.1257 9.5 15.1314Z" fill="#151515"/>
</svg>
