<svg width="19" height="19" viewBox="0 0 19 19" fill="none" xmlns="http://www.w3.org/2000/svg">
<path d="M16.6152 18.9992H2.35828C2.04715 19.006 1.73791 18.949 1.44945 18.8318C1.16099 18.7145 0.899378 18.5395 0.680594 18.3173C0.458628 18.0981 0.283821 17.8356 0.16699 17.5458C0.0501583 17.2561 -0.00621184 16.9454 0.00136741 16.633V2.37413C-0.00939785 2.06204 0.0434928 1.75104 0.156791 1.46023C0.27009 1.16941 0.441405 0.904914 0.660217 0.68298C0.881369 0.45824 1.1463 0.281693 1.43847 0.164364C1.73063 0.0470354 2.04376 -0.00855462 2.35828 0.00106588H16.622C16.9365 -0.00814576 17.2495 0.0476322 17.5416 0.164937C17.8337 0.282243 18.0987 0.458572 18.3201 0.68298C18.5409 0.901594 18.715 1.16309 18.8318 1.45151C18.9486 1.73993 19.0056 2.04922 18.9993 2.36049V16.6193C19.0069 16.9318 18.9505 17.2425 18.8337 17.5322C18.7169 17.8219 18.5421 18.0845 18.3201 18.3036C18.0991 18.5314 17.8335 18.7107 17.5401 18.8304C17.2467 18.9501 16.9318 19.0076 16.6152 18.9992ZM12.961 14.4236C13.0961 14.4357 13.2307 14.396 13.3378 14.3125C13.4449 14.229 13.5166 14.1079 13.5383 13.9735L15.4198 4.93812C15.4252 4.87989 15.4169 4.8212 15.3957 4.76673C15.3745 4.71226 15.3409 4.66354 15.2975 4.62444C15.2221 4.55262 15.123 4.51134 15.0191 4.50852C14.9828 4.50852 11.2403 5.89735 3.79145 8.67502C3.70739 8.70194 3.63453 8.75597 3.58418 8.82872C3.53382 8.90146 3.50879 8.98886 3.51297 9.07734C3.51771 9.15997 3.54859 9.23891 3.60112 9.30269C3.65365 9.36647 3.72509 9.41175 3.80503 9.43194L6.52194 10.2775L7.61549 13.5712C7.64407 13.6609 7.70169 13.7385 7.77922 13.7917C7.85675 13.8448 7.94973 13.8704 8.04341 13.8644C8.0941 13.8642 8.14425 13.8539 8.19091 13.834C8.23757 13.8141 8.27979 13.785 8.3151 13.7485L9.85694 12.2755L12.635 14.3213C12.7318 14.3858 12.8449 14.4213 12.961 14.4236ZM7.99586 12.7597L7.174 10.032C11.1226 7.50894 13.1104 6.2474 13.1376 6.2474C13.2395 6.2474 13.2938 6.2474 13.2938 6.35651C13.2961 6.37005 13.2961 6.38388 13.2938 6.39742C13.2938 6.39742 11.589 7.96583 8.18604 11.0344L7.99586 12.7597Z" fill="#170E0E"/>
</svg>
