<svg width="19" height="19" viewBox="0 0 19 19" fill="none" xmlns="http://www.w3.org/2000/svg">
<path d="M2.84798 0.0226517C2.47978 0.0632744 2.06477 0.195322 1.70066 0.384228C0.844213 0.835127 0.20752 1.71261 0.0386653 2.67945C0.0020271 2.8846 0 3.16083 0 9.54485V16.197L0.0468123 16.4041C0.339741 17.7264 1.27548 18.6608 2.5998 18.9533L2.80729 19H9.5H16.1927L16.4002 18.9533C17.7245 18.6608 18.6603 17.7264 18.9532 16.4041L19 16.197V9.54485C19 3.16083 18.998 2.88459 18.9614 2.67945C18.9105 2.38289 18.8088 2.0843 18.6542 1.77559C18.1721 0.806679 17.2038 0.136404 16.1175 0.0185928C15.8693 -0.00782394 3.08802 -0.00575447 2.84798 0.0226517ZM10.1164 3.40054C10.8162 3.48787 11.3817 3.65645 12.0021 3.9591C12.6124 4.2577 13.003 4.54002 13.5197 5.0539C14.0038 5.53937 14.2724 5.90699 14.5572 6.47777C14.9539 7.27401 15.1797 8.22052 15.2183 9.26252C15.2326 9.61793 15.2224 9.69719 15.141 9.79872C14.9864 9.99578 14.6467 9.96324 14.5307 9.74187C14.4941 9.66874 14.4839 9.6058 14.4717 9.32141C14.4514 8.88471 14.4209 8.60239 14.3598 8.2652C14.1198 6.94291 13.4851 5.8867 12.472 5.12905C11.6278 4.49534 10.7551 4.18656 9.61189 4.11956C9.22538 4.0972 9.15825 4.08299 9.07078 4.01595C8.90801 3.888 8.8999 3.58742 9.05652 3.44725C9.15214 3.35988 9.21926 3.3477 9.55086 3.35785C9.72377 3.36394 9.97804 3.38427 10.1164 3.40054ZM5.46607 3.61988C5.53728 3.64427 5.64713 3.70112 5.71019 3.74175C6.09668 3.99769 7.17281 5.37278 7.52476 6.05933C7.72613 6.45135 7.79325 6.74182 7.73022 6.95711C7.66509 7.18867 7.55731 7.31057 7.07518 7.69852C6.88192 7.85489 6.70086 8.01534 6.6724 8.05803C6.59916 8.16366 6.54015 8.37083 6.54015 8.51709C6.54221 8.85627 6.7619 9.47172 7.05078 9.94501C7.27452 10.3126 7.67526 10.7839 8.07195 11.1454C8.5378 11.572 8.94872 11.8624 9.41253 12.092C10.0086 12.3885 10.3727 12.4636 10.6392 12.3398C10.7063 12.3093 10.7775 12.2687 10.7999 12.2504C10.8202 12.2321 10.9769 12.0412 11.1478 11.83C11.4773 11.4156 11.5526 11.3486 11.7784 11.2714C12.0652 11.1739 12.3582 11.2003 12.6531 11.3506C12.8769 11.4664 13.3651 11.769 13.6804 11.9884C14.0954 12.2788 14.9823 13.0019 15.1024 13.1462C15.3139 13.4061 15.3506 13.7392 15.2081 14.1069C15.0576 14.4948 14.4717 15.222 14.0628 15.5328C13.6926 15.8131 13.4302 15.9207 13.0844 15.937C12.7996 15.9512 12.6816 15.9268 12.3175 15.7765C9.46136 14.6005 7.18096 12.8456 5.37045 10.4345C4.42454 9.17519 3.7044 7.86913 3.21209 6.51433C2.92528 5.72421 2.91105 5.38094 3.14699 4.97671C3.24873 4.80611 3.68202 4.38362 3.99733 4.148C4.52218 3.75802 4.76425 3.6138 4.95751 3.57317C5.08972 3.54473 5.31958 3.56709 5.46607 3.61988ZM10.2567 4.87315C11.4916 5.0539 12.4476 5.6267 13.0742 6.55698C13.4261 7.08101 13.6458 7.69646 13.7211 8.35659C13.7475 8.59833 13.7475 9.03908 13.7191 9.11221C13.6926 9.18128 13.6072 9.2747 13.5339 9.31329C13.4546 9.35391 13.2858 9.34985 13.1922 9.30111C13.0355 9.2219 12.9888 9.09594 12.9888 8.75473C12.9888 8.22864 12.8524 7.67414 12.6165 7.24353C12.348 6.75197 11.9574 6.34575 11.4814 6.06339C11.0725 5.81966 10.4683 5.63888 9.91704 5.59419C9.71766 5.57792 9.60781 5.53734 9.53254 5.44997C9.41662 5.31796 9.40438 5.1392 9.50202 4.99095C9.60781 4.82639 9.77055 4.79998 10.2567 4.87315ZM10.69 6.40667C11.0908 6.49197 11.398 6.64431 11.6604 6.89011C11.9981 7.20896 12.1832 7.59492 12.2646 8.14942C12.3195 8.51096 12.2971 8.65316 12.1689 8.77096C12.0489 8.88065 11.8272 8.88471 11.6929 8.78111C11.5953 8.70798 11.5648 8.6308 11.5424 8.4216C11.516 8.14334 11.4671 7.94835 11.3838 7.76756C11.2047 7.38366 10.8894 7.18461 10.3565 7.1196C10.1062 7.08912 10.0309 7.06071 9.94958 6.96527C9.80107 6.78853 9.85802 6.50212 10.0635 6.39652C10.1408 6.35793 10.1734 6.35383 10.3442 6.36402C10.45 6.3701 10.6067 6.38837 10.69 6.40667Z" fill="black"/>
</svg>
