<svg width="27" height="19" viewBox="0 0 27 19" fill="none" xmlns="http://www.w3.org/2000/svg">
<path fill-rule="evenodd" clip-rule="evenodd" d="M26.7167 4.09467C26.7167 4.09467 26.4528 2.23504 25.6435 1.41586C24.6178 0.341222 23.4673 0.336125 22.9399 0.273158C19.1636 2.0972e-08 13.499 0 13.499 0H13.487C13.487 0 7.82263 2.0972e-08 4.04609 0.273158C3.51867 0.336125 2.36877 0.341222 1.3424 1.41586C0.533122 2.23504 0.269859 4.09467 0.269859 4.09467C0.269859 4.09467 0 6.27843 0 8.46219V10.5098C0 12.6933 0.269859 14.8771 0.269859 14.8771C0.269859 14.8771 0.533122 16.7367 1.3424 17.5559C2.36877 18.6308 3.71716 18.5963 4.31775 18.7091C6.47693 18.9163 13.493 18.9804 13.493 18.9804C13.493 18.9804 19.1636 18.9717 22.9399 18.6989C23.4673 18.6359 24.6178 18.6308 25.6435 17.5559C26.4528 16.7367 26.7167 14.8771 26.7167 14.8771C26.7167 14.8771 26.9859 12.6933 26.9859 10.5098V8.46219C26.9859 6.27843 26.7167 4.09467 26.7167 4.09467ZM10.7071 12.9904L10.7059 5.40828L17.9975 9.2124L10.7071 12.9904Z" fill="#151515"/>
</svg>
