<svg width="262" height="17" viewBox="0 0 262 17" fill="none" xmlns="http://www.w3.org/2000/svg">
<path d="M171.014 6.1605C167.718 4.06525 163.787 1.57361 156.229 1.57361C148.671 1.57361 144.739 4.06533 141.438 6.15973L141.437 6.16015C139.873 7.15356 138.551 7.9879 136.971 8.59651C135.417 9.19474 133.562 9.59106 130.987 9.59106C128.411 9.59106 126.556 9.19474 125.002 8.59651C123.422 7.9879 122.1 7.15356 120.536 6.16015C117.24 4.06498 113.309 1.57361 105.751 1.57361C98.1929 1.57361 94.2617 4.06498 90.9659 6.16015C89.4017 7.15356 88.08 7.9879 86.4994 8.59651C84.9457 9.19474 83.0908 9.59106 80.5152 9.59106C77.9397 9.59106 76.0848 9.19474 74.5311 8.59651C72.9505 7.9879 71.6288 7.15356 70.0646 6.16015C66.7743 4.06411 62.8365 1.57361 55.2863 1.57361C47.7283 1.57361 43.7906 4.06489 40.4941 6.1605C38.9301 7.15375 37.6086 7.98797 36.0281 8.59651C34.4744 9.19474 32.6195 9.59106 30.044 9.59106C27.4684 9.59106 25.6135 9.19474 24.0598 8.59651C22.4792 7.9879 21.1575 7.15356 19.5933 6.16015C16.2975 4.06498 12.3663 1.57361 4.80833 1.57361C4.10371 1.57361 3.39164 1.7287 2.80257 2.05517C2.26515 2.35301 1.5 3.00501 1.5 4.07579C1.5 5.14775 2.2667 5.79943 2.80426 6.09735C3.39341 6.42385 4.10551 6.5802 4.81074 6.58541L4.81074 6.58545H4.82182C7.3974 6.58545 9.25229 6.98177 10.806 7.58C12.3866 8.18861 13.7083 9.02295 15.2725 10.0164L15.273 10.0167C18.5681 12.1076 22.4992 14.5992 30.0575 14.5992C37.6157 14.5992 41.5468 12.1076 44.8419 10.0167L44.8437 10.0156C46.4033 9.0229 47.7252 8.18856 49.3062 7.58009C50.8608 6.9818 52.7174 6.58545 55.2931 6.58545C57.8687 6.58545 59.7236 6.98177 61.2772 7.58C62.8577 8.18854 64.1793 9.02276 65.7432 10.016C69.0391 12.1113 72.9703 14.6029 80.5287 14.6029C88.0856 14.6029 92.0168 12.1084 95.3106 10.0183L95.3132 10.0167L95.3137 10.0164C96.8779 9.02295 98.1996 8.18861 99.7802 7.58C101.334 6.98177 103.189 6.58545 105.764 6.58545C108.34 6.58545 110.195 6.98177 111.749 7.58C113.329 8.18861 114.651 9.02295 116.215 10.0164L116.216 10.0167C119.511 12.1076 123.442 14.5992 131 14.5992C138.557 14.5992 142.488 12.1046 145.782 10.0146L145.784 10.0129L145.785 10.0126C147.349 9.01921 148.671 8.18487 150.251 7.57626C151.805 6.97803 153.66 6.58171 156.236 6.58171C158.811 6.58171 160.666 6.97803 162.22 7.57626C163.8 8.18487 165.122 9.01921 166.686 10.0126L166.687 10.0129C169.982 12.1038 173.913 14.5954 181.471 14.5954C189.028 14.5954 192.959 12.1009 196.253 10.0109L196.256 10.0092L196.256 10.0089C197.82 9.01547 199.142 8.18113 200.723 7.57252C202.276 6.97429 204.131 6.57797 206.707 6.57797C209.286 6.57797 211.143 6.97437 212.697 7.57261C214.279 8.1812 215.6 9.01549 217.164 10.0089L217.165 10.0092C220.46 12.1001 224.391 14.5917 231.949 14.5917C239.508 14.5917 243.439 12.1001 246.734 10.0092L246.734 10.0089C248.298 9.01588 249.621 8.18136 251.204 7.5727C252.759 6.9743 254.616 6.57797 257.192 6.57797C257.896 6.57797 258.608 6.42288 259.197 6.09641C259.735 5.79856 260.5 5.14657 260.5 4.07579C260.5 3.00501 259.735 2.35302 259.197 2.05517C258.608 1.7287 257.896 1.57361 257.192 1.57361C249.634 1.57361 245.696 4.06482 242.405 6.16126C240.842 7.15417 239.52 7.98806 237.94 8.59642C236.385 9.19467 234.528 9.59106 231.949 9.59106C229.37 9.59106 227.513 9.19467 225.959 8.59642C224.378 7.98806 223.057 7.15417 221.494 6.16126C218.203 4.06482 214.265 1.57361 206.707 1.57361C199.149 1.57361 195.217 4.06533 191.916 6.15973L191.915 6.16015C190.351 7.15356 189.029 7.9879 187.449 8.59651C185.895 9.19474 184.04 9.59106 181.465 9.59106C178.889 9.59106 177.034 9.19474 175.48 8.59651C173.9 7.98797 172.578 7.15375 171.014 6.1605ZM171.014 6.1605L170.21 7.42637M171.014 6.1605C171.014 6.16038 171.014 6.16027 171.014 6.16015L170.21 7.42637M170.21 7.42637C166.998 5.38461 163.361 3.07361 156.229 3.07361C149.103 3.07361 145.466 5.38068 142.25 7.42116L142.241 7.42637L142.239 7.42761C139.143 9.39405 136.471 11.0911 130.987 11.0911C125.502 11.0911 122.83 9.39405 119.734 7.42761L119.732 7.42637M170.21 7.42637H119.732M119.732 7.42637C116.52 5.38461 112.883 3.07361 105.751 3.07361C98.6188 3.07361 94.9819 5.38461 91.7701 7.42637L91.7681 7.4276C88.6718 9.39405 85.9998 11.0911 80.5152 11.0911C75.0307 11.0911 72.3586 9.39406 69.2624 7.42762L119.732 7.42637Z" fill="#3A00DE" stroke="#3A00DE" stroke-width="3"/>
</svg>
