<svg width="30" viewBox="0 0 30 40" fill="none" xmlns="http://www.w3.org/2000/svg">
<path d="M15.2908 39.2179C14.7092 39.2179 14.2372 38.6843 14.2372 38.0268V31.7234C14.2372 31.0659 14.7092 30.5323 15.2908 30.5323C15.8723 30.5323 16.3443 31.0659 16.3443 31.7234V38.0268C16.3443 38.6843 15.8723 39.2179 15.2908 39.2179Z" fill="#3A00DE"/>
<path d="M15.2908 9.383C14.7092 9.383 14.2372 8.84938 14.2372 8.19188V1.88853C14.2372 1.23104 14.7092 0.697418 15.2908 0.697418C15.8723 0.697418 16.3443 1.23104 16.3443 1.88853V8.19188C16.3443 8.84938 15.8723 9.383 15.2908 9.383Z" fill="#3A00DE"/>
<path d="M24.1151 14.8764C23.7527 14.8764 23.3987 14.662 23.2006 14.2808C22.9099 13.7091 23.0826 12.9849 23.5883 12.6562L28.4177 9.50208C28.9234 9.17333 29.5639 9.36867 29.8589 9.94041C30.1497 10.5121 29.9769 11.2363 29.4712 11.5699L24.6418 14.7239C24.4733 14.824 24.2921 14.8764 24.1151 14.8764Z" fill="#3A00DE"/>
<path d="M1.25791 29.7938C0.895495 29.7938 0.541512 29.5794 0.34345 29.1983C0.0526786 28.6265 0.225456 27.9023 0.731146 27.5688L5.56049 24.4195C6.06618 24.0908 6.70672 24.2861 7.0017 24.8579C7.29247 25.4296 7.1197 26.1538 6.61401 26.4873L1.78467 29.6366C1.62032 29.7414 1.43911 29.7938 1.25791 29.7938Z" fill="#3A00DE"/>
<path d="M5.88492 15.2575C5.70792 15.2575 5.52672 15.2051 5.35816 15.1003L0.528815 11.9463C0.0231244 11.6175 -0.149653 10.8886 0.141119 10.3168C0.431891 9.74511 1.07665 9.54977 1.58234 9.87851L6.41168 13.0326C6.91737 13.3613 7.09014 14.0903 6.79937 14.662C6.60131 15.0479 6.24733 15.2575 5.88492 15.2575Z" fill="#3A00DE"/>
<path d="M28.7379 30.175C28.5609 30.175 28.3797 30.1226 28.2112 30.0178L23.3818 26.8685C22.8762 26.5398 22.7034 25.8108 22.9941 25.2391C23.2849 24.6673 23.9297 24.472 24.4354 24.8008L29.2647 27.95C29.7704 28.2788 29.9432 29.0077 29.6524 29.5795C29.4543 29.9654 29.1003 30.175 28.7379 30.175Z" fill="#3A00DE"/>
</svg>
