<svg width="23" height="25" viewBox="0 0 23 25" fill="none" xmlns="http://www.w3.org/2000/svg">
<path d="M17.5876 0.883502C19.2705 0.592304 20.9536 0.301015 22.6926 0C22.3638 1.7171 22.0398 3.40896 21.7052 5.15634C21.3948 4.84651 21.0916 4.57531 20.828 4.26944C20.6433 4.0554 20.5287 4.09934 20.355 4.27072C19.2592 5.35212 18.1567 6.42673 17.0551 7.50243C15.0893 9.42238 13.1199 11.339 11.1606 13.2657C10.997 13.4265 10.9154 13.4006 10.7697 13.2606C9.94751 12.4715 9.11236 11.6957 8.29271 10.9041C8.13289 10.75 8.04839 10.7382 7.88389 10.9042C6.08395 12.7169 4.27291 14.5185 2.47287 16.3306C2.30874 16.4966 2.22214 16.5244 2.04525 16.342C1.52322 15.8034 0.981011 15.284 0.438707 14.7652C0.318888 14.6505 0.319255 14.5874 0.437881 14.4697C2.96307 11.9632 5.48651 9.45458 8.00114 6.93729C8.17968 6.75875 8.25849 6.86875 8.36922 6.97343C9.18327 7.74281 10.0003 8.50952 10.806 9.2877C10.9385 9.41605 10.9979 9.40605 11.1248 9.28348C13.3677 7.11848 15.6167 4.95936 17.8644 2.79913C18.0611 2.61032 18.2496 2.41105 18.4611 2.24004C18.6503 2.08692 18.6155 1.98508 18.4529 1.84049C18.1358 1.55783 17.8342 1.25782 17.5265 0.965064C17.5467 0.938091 17.5675 0.910934 17.5876 0.883502Z" fill="#3A00DE"/>
<path d="M6.2881 18.0215H0V24.1388H6.2881V18.0215Z" fill="#3A00DE"/>
<path d="M14.4299 15.1377H8.14154V24.1389H14.4299V15.1377Z" fill="#3A00DE"/>
<path d="M22.5419 11.2169H16.2536V24.146H22.5419V11.2169Z" fill="#3A00DE"/>
</svg>
