<svg width="26" height="27" viewBox="0 0 26 27" fill="none" xmlns="http://www.w3.org/2000/svg">
<g clip-path="url(#clip0)">
<path d="M26 7.8005C25.8717 7.96211 25.7968 8.05908 25.7112 8.14527C23.3904 10.5802 21.0695 13.0044 18.738 15.4286C18.5668 15.6118 18.4813 15.7841 18.4813 16.0427C18.492 17.9497 18.4813 19.8675 18.492 21.7746C18.492 22.0547 18.4171 22.1193 18.1497 22.1193C14.7059 22.1086 11.2727 22.1086 7.82888 22.1086C7.47594 22.1086 7.47594 22.1086 7.47594 21.753C7.47594 19.846 7.47594 17.9282 7.48663 16.0212C7.48663 15.7841 7.42246 15.601 7.25134 15.4286C4.90909 12.9936 2.58824 10.5587 0.256685 8.12373C0.181818 8.04831 0.117647 7.95134 0 7.82205C0.181818 7.81128 0.28877 7.8005 0.395722 7.8005C4.31016 7.8005 8.2246 7.8005 12.139 7.8005C12.5134 7.8005 12.5134 7.8005 12.5027 7.43418C12.4385 5.55948 13.5508 3.88949 15.3262 3.30768C17.5508 2.58582 19.8396 3.79252 20.5241 5.9689C20.6845 6.47528 20.7701 6.98167 20.7059 7.5096C20.6738 7.76818 20.7487 7.82205 20.984 7.81128C22.5134 7.8005 24.0535 7.81128 25.5829 7.8005C25.6898 7.8005 25.8075 7.8005 26 7.8005ZM16.6952 7.7574C17.3797 7.7574 18.0642 7.7574 18.7487 7.7574C18.9412 7.7574 19.0267 7.69276 19.0481 7.49882C19.1872 6.19515 18.3209 4.91303 16.8984 4.78374C15.3904 4.6329 14.1925 5.87193 14.2888 7.39108C14.2995 7.64966 14.3957 7.7574 14.6631 7.7574C15.3369 7.74663 16.0214 7.7574 16.6952 7.7574Z" fill="#3A00DE"/>
<path d="M4.877 3.78172C4.877 1.70231 6.55615 0 8.62032 0C10.6845 0 12.385 1.70231 12.385 3.77095C12.385 5.87191 10.6845 7.57422 8.58823 7.57422C6.55615 7.57422 4.86631 5.86113 4.877 3.78172ZM8.6524 1.73464C7.52941 1.72386 6.59893 2.62889 6.58823 3.76018C6.57754 4.93456 7.46524 5.85036 8.63101 5.85036C9.74331 5.86113 10.6631 4.9561 10.6738 3.83559C10.6845 2.65044 9.80749 1.73464 8.6524 1.73464Z" fill="#3A00DE"/>
<path d="M13.8824 24.996C13.8824 25.5778 13.8824 26.1596 13.8824 26.7414C13.8824 26.9246 13.8289 27 13.6364 27C13.2193 26.9892 12.8021 26.9892 12.385 27C12.2246 27 12.1604 26.9461 12.1604 26.7737C12.1604 25.5778 12.1604 24.3926 12.1604 23.1967C12.1604 23.0351 12.2139 22.9705 12.3743 22.9705C12.8021 22.9812 13.2299 22.9812 13.6578 22.9705C13.8503 22.9705 13.8824 23.0567 13.8824 23.2183C13.8717 23.8108 13.8824 24.4034 13.8824 24.996Z" fill="#3A00DE"/>
<path d="M11.1337 24.9852C11.1337 25.5562 11.123 26.138 11.1337 26.7091C11.1337 26.9353 11.0481 27.0107 10.8342 27C10.4492 26.9892 10.0642 26.9892 9.68983 27C9.50801 27 9.41176 26.9353 9.41176 26.7414C9.41176 25.5778 9.41176 24.4034 9.41176 23.2398C9.41176 23.0566 9.46523 22.9812 9.65775 22.9812C10.0642 22.992 10.4813 22.992 10.8877 22.9812C11.0802 22.9812 11.1337 23.0566 11.1337 23.2398C11.1337 23.8108 11.1337 24.4034 11.1337 24.9852Z" fill="#3A00DE"/>
<path d="M16.6203 24.996C16.6203 25.5563 16.6096 26.1273 16.6203 26.6876C16.631 26.9246 16.5348 27 16.3102 27C15.9358 26.9893 15.5615 26.9893 15.1872 27C14.984 27 14.8984 26.9462 14.8984 26.7307C14.9091 25.5671 14.8984 24.4035 14.8984 23.2399C14.8984 23.0675 14.9412 22.9705 15.1337 22.9813C15.5401 22.9921 15.9572 22.9921 16.3636 22.9813C16.5668 22.9813 16.6203 23.0675 16.6203 23.2614C16.6203 23.8324 16.6203 24.4142 16.6203 24.996Z" fill="#3A00DE"/>
</g>
<defs>
<clipPath id="clip0">
<rect width="26" height="27" fill="white"/>
</clipPath>
</defs>
</svg>
