<svg width="32" height="32" viewBox="0 0 32 32" fill="none" xmlns="http://www.w3.org/2000/svg">
<path d="M8 25V11C8 10.4696 8.21071 9.96086 8.58579 9.58579C8.96086 9.21071 9.46957 9 10 9H16V8C16 7.73478 15.8946 7.48043 15.7071 7.29289C15.5196 7.10536 15.2652 7 15 7H3C2.73478 7 2.48043 7.10536 2.29289 7.29289C2.10536 7.48043 2 7.73478 2 8V28C2 28.2652 2.10536 28.5196 2.29289 28.7071C2.48043 28.8946 2.73478 29 3 29H15C15.2652 29 15.5196 28.8946 15.7071 28.7071C15.8946 28.5196 16 28.2652 16 28V27H10C9.46957 27 8.96086 26.7893 8.58579 26.4142C8.21071 26.0391 8 25.5304 8 25Z" fill="#3A00DE"/>
<path d="M13 4C13 3.73478 12.8946 3.48043 12.7071 3.29289C12.5196 3.10536 12.2652 3 12 3H6C5.73478 3 5.48043 3.10536 5.29289 3.29289C5.10536 3.48043 5 3.73478 5 4V5H13V4Z" fill="#3A00DE"/>
<path d="M29 10H10C9.73478 10 9.48043 10.1054 9.29289 10.2929C9.10536 10.4804 9 10.7348 9 11V25C9 25.2652 9.10536 25.5196 9.29289 25.7071C9.48043 25.8946 9.73478 26 10 26H29C29.2652 26 29.5196 25.8946 29.7071 25.7071C29.8946 25.5196 30 25.2652 30 25V11C30 10.7348 29.8946 10.4804 29.7071 10.2929C29.5196 10.1054 29.2652 10 29 10ZM15 23H12V21H15V23ZM15 15H12V13H15V15ZM21 23H18V21H21V23ZM21 15H18V13H21V15ZM27 23H24V21H27V23ZM27 15H24V13H27V15Z" fill="#3A00DE"/>
</svg>
