<svg width="27" height="27" viewBox="0 0 27 27" fill="none" xmlns="http://www.w3.org/2000/svg">
<g clip-path="url(#clip0)">
<path d="M23.652 13.4028C23.2848 13.2948 22.95 13.176 22.6152 13.1004C22.2804 13.0248 21.924 12.9816 21.5784 12.9168C21.5784 12.4524 21.5892 11.988 21.5784 11.5236C21.3948 6.83639 17.9172 2.95919 13.2948 2.26799C8.12161 1.51199 3.18601 5.06519 2.32201 10.206C2.23561 10.746 2.19241 11.2968 2.17081 11.8368C2.13841 12.5064 1.68481 12.9816 1.05841 12.9708C0.43201 12.96 -0.0107898 12.4848 1.02097e-05 11.8152C0.0432102 6.64199 3.38041 2.12759 8.30521 0.550794C13.77 -1.18801 19.8072 1.32839 22.4208 6.42599C23.5008 8.54279 23.922 10.7784 23.6952 13.1436C23.6952 13.23 23.6628 13.3164 23.652 13.4028Z" fill="#3A00DE"/>
<path d="M20.466 14.634C21.8376 14.6232 23.166 14.8176 24.4296 15.4008C24.9912 15.66 25.5204 15.9948 25.9524 16.4484C26.622 17.1396 26.6328 17.8308 26.0064 18.5544C25.542 19.0944 24.9804 19.494 24.3108 19.7208C21.8376 20.5956 19.332 20.7252 16.848 19.7964C16.2972 19.5912 15.7788 19.278 15.3036 18.9432C15.0228 18.7488 14.8176 18.4464 14.634 18.144C14.3748 17.7228 14.3964 17.2692 14.6556 16.8372C15.0012 16.254 15.5196 15.8544 16.1136 15.552C17.3772 14.9256 18.7704 14.6232 20.466 14.634Z" fill="#3A00DE"/>
<path d="M4.59001 18.2952C5.63761 19.494 6.89042 20.3688 8.35922 20.9412C9.81722 21.5028 11.3292 21.708 12.8844 21.5568C12.8844 22.2804 12.8844 22.9824 12.8844 23.7384C8.87762 23.9868 5.52961 22.6152 2.81881 19.6128C2.63521 19.7532 2.44081 19.8936 2.25721 20.0232C1.63081 20.4768 0.853215 20.1744 0.745215 19.4076C0.583215 18.2412 0.442815 17.0748 0.334815 15.8976C0.259215 15.1308 0.950415 14.6556 1.66321 14.958C2.71081 15.4008 3.75841 15.8544 4.80602 16.308C5.52961 16.6212 5.63761 17.4528 5.03281 17.9388C4.89241 18.0576 4.75202 18.1656 4.59001 18.2952Z" fill="#3A00DE"/>
<path d="M18.4248 8.83439C18.4032 9.30959 18.198 9.57959 17.8632 9.76319C16.4052 10.5948 14.9364 11.4156 13.4892 12.258C13.338 12.3444 13.2084 12.474 13.1112 12.6144C12.5064 13.5648 11.1456 13.5324 10.5732 12.5604C10.4868 12.42 10.3464 12.2796 10.206 12.204C9.29879 11.7396 8.38079 11.3076 7.48439 10.8432C6.95519 10.5732 6.80399 9.94679 7.11719 9.49319C7.37639 9.12599 7.81919 9.00719 8.27279 9.17999C9.28799 9.55799 10.2924 9.96839 11.3292 10.314C11.7072 10.4436 12.1284 10.4652 12.5172 10.2708C14.0184 9.52559 15.5088 8.79119 17.0208 8.06759C17.5716 7.79759 18.1224 7.98119 18.36 8.49959C18.3924 8.63999 18.414 8.76959 18.4248 8.83439ZM11.8584 11.0808C11.4156 11.07 11.0376 11.448 11.0268 11.9016C11.016 12.3444 11.4048 12.7548 11.8584 12.7548C12.3012 12.7548 12.6792 12.3768 12.69 11.934C12.7116 11.4804 12.3228 11.0808 11.8584 11.0808Z" fill="#3A00DE"/>
<path d="M14.4288 22.9824C16.416 24.7644 18.7704 25.0884 21.2436 24.9804C22.4208 24.9264 23.5764 24.6888 24.6672 24.2136C25.3152 23.9328 25.8876 23.5332 26.406 23.0364C26.7624 24.2784 26.3844 25.2504 25.2936 25.866C23.6196 26.8056 21.8052 27.108 19.9044 26.9892C18.6408 26.9028 17.4096 26.6436 16.2432 26.1468C15.8436 25.974 15.4548 25.758 15.0984 25.5096C14.634 25.1748 14.4288 24.678 14.4288 24.1056C14.4288 23.7276 14.4288 23.3712 14.4288 22.9824Z" fill="#3A00DE"/>
<path d="M26.46 19.656C26.46 20.142 26.4708 20.5524 26.46 20.9628C26.4384 21.6108 26.0496 22.0428 25.542 22.3668C24.6672 22.9284 23.706 23.2848 22.6908 23.4684C20.4012 23.8896 18.1764 23.6088 16.038 22.7124C15.7896 22.6044 15.552 22.4748 15.3252 22.3344C14.7204 21.9456 14.4072 21.3948 14.4288 20.6604C14.4396 20.3364 14.4288 20.0124 14.4288 19.6344C16.1568 21.2544 18.252 21.654 20.4444 21.654C22.626 21.6648 24.7212 21.2652 26.46 19.656Z" fill="#3A00DE"/>
</g>
<defs>
<clipPath id="clip0">
<rect width="26.5464" height="27" fill="white"/>
</clipPath>
</defs>
</svg>
