<svg width="101" height="10" viewBox="0 0 101 10" fill="none" xmlns="http://www.w3.org/2000/svg">
<path d="M81.9283 6.50026L81.9278 6.49991C81.336 6.09598 80.9243 5.82084 80.4439 5.62213C79.9939 5.43597 79.433 5.2994 78.5944 5.2994C77.7572 5.2994 77.197 5.43588 76.7472 5.62203C76.267 5.82076 75.8552 6.09596 75.2634 6.49991L75.2629 6.50025C73.9935 7.36597 72.334 8.49702 69.2296 8.49702C66.1257 8.49702 64.4665 7.36805 63.1962 6.50174L63.1957 6.5014C62.6039 6.09745 62.1922 5.82225 61.7119 5.62352C61.2621 5.43737 60.702 5.30089 59.8648 5.30089C59.0276 5.30089 58.4675 5.43737 58.0177 5.62352C57.5374 5.82225 57.1256 6.09745 56.5338 6.5014L56.5333 6.50175C55.2639 7.36746 53.6045 8.49851 50.5 8.49851C47.3961 8.49851 45.737 7.36954 44.4667 6.50324L44.4662 6.50289C43.8744 6.09894 43.4626 5.82375 42.9823 5.62501C42.5325 5.43887 41.9724 5.30239 41.1352 5.30239C40.298 5.30239 39.7379 5.43887 39.2881 5.62501C38.8078 5.82375 38.3961 6.09894 37.8043 6.50289L37.8037 6.50324C36.5343 7.36895 34.8749 8.5 31.7704 8.5C28.6664 8.5 27.0072 7.37098 25.736 6.50251C25.1445 6.09877 24.7329 5.82368 24.2528 5.62501C23.803 5.43887 23.2428 5.30239 22.4056 5.30239C21.5684 5.30239 21.0075 5.4389 20.5573 5.62511C20.0772 5.82369 19.6653 6.09888 19.0759 6.50203L19.0742 6.50324C17.8039 7.36954 16.1447 8.49851 13.0409 8.49851C9.93697 8.49851 8.27783 7.36954 7.00753 6.50324L7.00702 6.50289C6.41522 6.09894 6.00344 5.82375 5.5232 5.62501C5.07338 5.43887 4.51325 5.30239 3.67607 5.30239H3.66415L3.66416 5.30234C3.25974 5.29913 2.81947 5.20364 2.42959 4.97142C2.07118 4.75794 1.5 4.25067 1.5 3.3997C1.5 2.54992 2.06973 2.04233 2.42896 1.82836C2.81985 1.59553 3.26252 1.5 3.67106 1.5C6.77464 1.5 8.43383 2.6287 9.70489 3.49711L81.9283 6.50026ZM81.9283 6.50026C83.1986 7.36656 84.8578 8.49553 87.9616 8.49553C91.0655 8.49553 92.7247 7.36656 93.995 6.50025L93.9955 6.49991C94.5866 6.0964 94.9993 5.82101 95.4801 5.62222C95.9308 5.4359 96.4917 5.2994 97.3289 5.2994C97.7375 5.2994 98.1801 5.20387 98.571 4.97105C98.9303 4.75708 99.5 4.24949 99.5 3.3997C99.5 2.54991 98.9303 2.04233 98.571 1.82836C98.1801 1.59553 97.7375 1.5 97.3289 1.5C94.2259 1.5 92.5644 2.62807 91.2941 3.49777M81.9283 6.50026L91.2941 3.49777M91.2941 3.49777C90.7029 3.90134 90.2914 4.17629 89.8112 4.37489C89.3612 4.56104 88.8003 4.69761 87.9616 4.69761C87.123 4.69761 86.5621 4.56104 86.1121 4.37489C85.6319 4.17629 85.2204 3.90134 84.6292 3.49777C83.3589 2.62807 81.6974 1.5 78.5944 1.5C75.4904 1.5 73.8312 2.62909 72.5587 3.49666L72.558 3.49711C71.9662 3.90106 71.5544 4.17625 71.0742 4.37499C70.6244 4.56113 70.0642 4.69761 69.2271 4.69761C68.3899 4.69761 67.8298 4.56113 67.3799 4.37499C66.8998 4.17632 66.4882 3.90123 65.8967 3.49749C64.6255 2.62902 62.9663 1.5 59.8623 1.5C56.7583 1.5 55.0991 2.62909 53.8266 3.49666L53.8259 3.49711C53.2341 3.90106 52.8224 4.17625 52.3421 4.37499C51.8923 4.56113 51.3322 4.69761 50.495 4.69761C49.6578 4.69761 49.0977 4.56113 48.6479 4.37499C48.1678 4.17632 47.7561 3.90123 47.1646 3.49749C45.8934 2.62902 44.2342 1.5 41.1302 1.5C38.0262 1.5 36.367 2.62902 35.0958 3.49749C34.5043 3.90123 34.0926 4.17632 33.6126 4.37499C33.1627 4.56113 32.6026 4.69761 31.7654 4.69761C30.9282 4.69761 30.3681 4.56113 29.9183 4.37499C29.4382 4.17633 29.0266 3.90126 28.4351 3.49755C27.1652 2.62808 25.5036 1.5 22.4031 1.5C19.3 1.5 17.6385 2.62829 16.3668 3.49711L91.2941 3.49777ZM11.1887 4.37499C10.7086 4.17632 10.2969 3.90123 9.70544 3.49749L16.3663 3.49749C15.7747 3.90123 15.3631 4.17632 14.883 4.37499C14.4332 4.56113 13.873 4.69761 13.0358 4.69761C12.1987 4.69761 11.6385 4.56113 11.1887 4.37499Z" fill="#3A00DE" stroke="#3A00DE" stroke-width="3"/>
</svg>
