<svg width="28" height="27" viewBox="0 0 28 27" fill="none" xmlns="http://www.w3.org/2000/svg">
<g clip-path="url(#clip0)">
<path d="M11.1243 12.2669C10.6505 11.8684 10.252 11.5237 9.85348 11.1791C8.91651 10.3714 7.9903 9.55285 7.04256 8.75588C6.91332 8.64818 6.70869 8.5728 6.53637 8.5728C4.93167 8.56203 3.32696 8.54049 1.72226 8.5728C0.817589 8.58357 -0.011689 7.8943 -0.000919118 6.84962C0.0206206 5.13722 0.0206206 3.42481 -0.000919118 1.71241C-0.011689 0.71081 0.763739 0 1.70072 0C5.20091 0.0215397 8.70111 0.0215397 12.2013 0C13.246 0 13.9245 0.786199 13.9137 1.73394C13.9029 3.42481 13.9137 5.10491 13.9137 6.79577C13.9137 7.80814 13.2244 8.49741 12.2121 8.50818C11.9536 8.50818 11.6951 8.51895 11.4366 8.50818C11.2105 8.49741 11.1459 8.58357 11.1459 8.80973C11.1566 9.83287 11.1459 10.856 11.1459 11.8791C11.1459 11.9761 11.1351 12.0838 11.1243 12.2669ZM6.97794 5.18029C7.91491 5.18029 8.84112 5.18029 9.7781 5.18029C9.99349 5.18029 10.0581 5.10491 10.0581 4.90028C10.0473 4.45872 10.0473 4.01715 10.0581 3.58636C10.0581 3.41404 10.0043 3.33865 9.83194 3.34942C7.93645 3.34942 6.05173 3.34942 4.15624 3.34942C3.96238 3.34942 3.90853 3.43558 3.9193 3.6079C3.93007 4.02792 3.94084 4.44795 3.9193 4.86797C3.90853 5.12645 4.00546 5.19106 4.2424 5.18029C5.14706 5.16953 6.0625 5.18029 6.97794 5.18029Z" fill="#3A00DE"/>
<path d="M18.2118 22.9074C18.5672 22.4766 18.8903 22.0889 19.2134 21.6904C19.9242 20.8181 20.6458 19.9457 21.3566 19.0626C21.4858 18.9011 21.6043 18.858 21.8089 18.9549C24.1783 20.0534 25.783 21.8628 26.6015 24.329C26.8492 25.0614 26.9138 25.8476 27.0431 26.623C27.0969 26.9892 27.0646 27 26.6984 27C22.8752 27 19.0519 27 15.2286 27C13.4192 27 11.5991 27 9.78979 27C9.41285 27 9.40208 27 9.43439 26.623C9.7144 23.0582 11.4483 20.4842 14.6901 18.9334C14.8732 18.8472 14.9701 18.9334 15.067 19.0626C16.0255 20.2473 16.9948 21.4212 17.9533 22.6059C18.018 22.692 18.1041 22.7782 18.2118 22.9074Z" fill="#3A00DE"/>
<path d="M13.9146 13.3977C13.9146 11.0068 15.8532 9.079 18.2441 9.08977C20.5704 9.08977 22.5413 11.0714 22.5305 13.4192C22.5197 15.7778 20.5704 17.7164 18.1903 17.7164C15.8209 17.6949 13.9039 15.7671 13.9146 13.3977Z" fill="#3A00DE"/>
</g>
<defs>
<clipPath id="clip0">
<rect width="27.0646" height="27" fill="white"/>
</clipPath>
</defs>
</svg>
